<?xml version="1.0" encoding="UTF-8"?>
<!--Generator: Apple Native CoreSVG 326-->
<!DOCTYPE svg
PUBLIC "-//W3C//DTD SVG 1.1//EN"
       "http://www.w3.org/Graphics/SVG/1.1/DTD/svg11.dtd">
<svg version="1.1" xmlns="http://www.w3.org/2000/svg" xmlns:xlink="http://www.w3.org/1999/xlink" viewBox="0 0 734.863 530.029">
 <g>
  <!-- <rect height="530.029" opacity="0" width="734.863" x="0" y="0"/> -->
  <path d="M0 393.311C0 469.971 59.8145 530.029 142.578 530.029L592.529 530.029C675.049 530.029 734.863 469.971 734.863 393.311C734.863 370.605 728.027 349.854 720.215 330.566L609.863 72.998C589.844 25.3906 549.805 0.732422 496.826 0.732422L238.037 0.732422C185.303 0.732422 145.264 25.3906 125.244 72.998L14.6484 330.566C6.83594 349.609 0 370.605 0 393.311ZM43.2129 393.311C43.2129 340.576 83.7402 300.049 142.578 300.049L592.529 300.049C651.123 300.049 691.65 340.576 691.65 393.311C691.65 450.928 651.123 486.572 592.529 486.572L142.578 486.572C83.7402 486.572 43.2129 446.045 43.2129 393.311ZM90.5762 267.578L166.748 84.4727C179.443 54.1992 204.59 38.8184 239.502 38.8184L495.605 38.8184C530.273 38.8184 555.664 54.1992 568.115 84.4727L644.043 267.334C628.662 260.742 611.084 256.592 592.529 256.592L142.578 256.592C123.779 256.592 106.201 260.742 90.5762 267.578ZM552.979 393.311C552.979 415.039 570.801 431.641 592.041 431.641C612.549 431.641 630.127 414.551 630.127 393.311C630.127 372.803 612.549 354.98 592.041 354.98C570.801 354.98 552.979 372.803 552.979 393.311Z" fill="white" fill-opacity="0.85"/>
 </g>
</svg>
