<svg xmlns="http://www.w3.org/2000/svg" xml:space="preserve" width="1500" height="157" data-id="lg_ROlqTqgMEnIS2BY2yI" data-version="1" viewBox="0 0 1500 157"><g data-padding="20"><g transform="translate(10 2.804)scale(.96429)"><rect width="560" height="157.07" x="86.907" y="-400.435" fill="none" rx="0" ry="0" transform="translate(400.5 400.4)"/><path fill="#fff" d="m565.927 118.83-30.58-93.4-30.44 93.4v-.13q-.84 2.08-2.29 3.4-1.46 1.32-3.55 1.32-1.11 0-2.15-.21-1.05-.21-2.16-.48h.14q-7.92-2.51-5.84-8.9l31.69-96.33q.7-2.22 2.44-3.75 1.73-1.53 4.1-1.81 2.36-.41 4.58-.62 2.23-.21 3.48-.21t3.47.21q2.23.21 4.59.48 1.95.28 3.82 2.09 1.88 1.81 2.85 3.61 7.79 23.91 15.78 48.17 7.99 24.25 15.78 48.16 1.94 6.39-5.84 8.9-1.11.27-2.02.48-.9.21-2.01.21-1.95 0-3.55-1.32t-2.29-3.4Zm-20.16-30.02q0 4.45-3.12 7.58-3.13 3.12-7.58 3.12t-7.5-3.12q-3.06-3.13-3.06-7.58t3.06-7.58q3.05-3.12 7.5-3.12t7.58 3.12q3.12 3.13 3.12 7.58m123.3 1.95v9.17q0 11.26-7.51 16.82-3.61 2.64-7.43 4.1-3.83 1.46-7.44 1.46h-30.3q-3.62 0-7.44-1.46t-7.44-4.1q-3.61-2.78-5.56-6.88-1.94-4.1-1.94-9.94V33.91q0-5.56 1.94-9.8 1.95-4.24 5.56-6.88h-.14q3.62-2.37 7.51-3.9t7.51-1.53h30.3q3.61 0 7.5 1.53 3.9 1.53 7.51 3.9h-.14q3.62 2.64 5.56 6.88 1.95 4.24 1.95 9.8v9.59q0 6.67-8.34 6.67-8.2 0-8.2-6.67v-8.34q0-3.48-2.09-6.4-2.08-2.92-7.23-2.92h-23.35q-5.14 0-7.23 2.92-2.08 2.92-2.08 6.4v63.66q0 3.61 2.08 6.53 2.09 2.92 7.23 2.92h23.35q5.15 0 7.23-2.92 2.09-2.92 2.09-6.53v-8.06q0-6.54 8.2-6.54 8.34 0 8.34 6.54m95.07 0v9.17q0 11.26-7.5 16.82-3.62 2.64-7.44 4.1t-7.44 1.46h-30.3q-3.61 0-7.43-1.46-3.83-1.46-7.44-4.1-3.61-2.78-5.56-6.88t-1.95-9.94V33.91q0-5.56 1.95-9.8t5.56-6.88h-.14q3.61-2.37 7.51-3.9 3.89-1.53 7.5-1.53h30.3q3.62 0 7.51 1.53t7.51 3.9h-.14q3.61 2.64 5.56 6.88 1.94 4.24 1.94 9.8v9.59q0 6.67-8.34 6.67-8.2 0-8.2-6.67v-8.34q0-3.48-2.08-6.4-2.09-2.92-7.23-2.92h-23.35q-5.15 0-7.23 2.92-2.09 2.92-2.09 6.4v63.66q0 3.61 2.09 6.53 2.08 2.92 7.23 2.92h23.35q5.14 0 7.23-2.92 2.08-2.92 2.08-6.53v-8.06q0-6.54 8.2-6.54 8.34 0 8.34 6.54m79.93 31.55h-50.88q-5.14 0-6.95-2.64-1.8-2.64-1.8-5.84V20.14q0-3.19 1.8-5.76 1.81-2.58 6.95-2.58h48.38q5.14 0 5.42 6.95.28 7.09-5.42 7.09h-40.73v82.43h43.23q5.14 0 5.28 6.81.28 7.23-5.28 7.23m-7.65-57.55q0 4.87-3.4 8.2-3.41 3.34-8.27 3.34-4.73 0-8.06-3.34-3.34-3.33-3.34-8.2 0-4.86 3.34-8.2 3.33-3.33 8.06-3.33 4.86 0 8.27 3.33 3.4 3.34 3.4 8.2m53.8-6.11h26.82q3.62 0 7.51 1.53t7.51 4.03h-.14q3.61 2.5 5.56 6.81 1.94 4.31 1.94 9.87v19.04q0 11.26-7.5 16.82-3.62 2.64-7.44 4.1t-7.44 1.46h-30.3q-3.61 0-7.43-1.46-3.83-1.46-7.44-4.1-7.51-5.56-7.51-16.82v-9.17q0-6.54 8.2-6.54 8.34 0 8.34 6.54v8.06q0 3.61 2.09 6.53 2.08 2.92 7.23 2.92h23.35q5.14 0 7.23-2.92 2.08-2.92 2.08-6.53V82q0-3.48-2.08-6.46-2.09-2.99-7.23-2.99h-26.83q-7.23 0-14.87-5.28-7.51-5.84-7.51-16.82V33.91q0-5.56 1.95-9.8 1.94-4.24 5.56-6.88h-.14q3.61-2.37 7.51-3.9 3.89-1.53 7.5-1.53h30.3q3.62 0 7.51 1.53t7.51 3.9h-.14q3.61 2.64 5.56 6.88 1.94 4.24 1.94 9.8v8.2q0 6.53-8.34 6.53-8.2 0-8.2-6.53v-6.95q0-3.48-2.08-6.4-2.09-2.92-7.23-2.92h-23.35q-5.15 0-7.23 2.92-2.09 2.92-2.09 6.4v14.17q0 3.62 2.09 6.47 2.08 2.85 7.23 2.85m96.88 0h26.83q3.61 0 7.5 1.53t7.51 4.03h-.14q3.61 2.5 5.56 6.81t1.95 9.87v19.04q0 11.26-7.51 16.82-3.61 2.64-7.44 4.1-3.82 1.46-7.43 1.46h-30.31q-3.61 0-7.43-1.46t-7.44-4.1q-7.5-5.56-7.5-16.82v-9.17q0-6.54 8.2-6.54 8.34 0 8.34 6.54v8.06q0 3.61 2.08 6.53 2.09 2.92 7.23 2.92h23.35q5.14 0 7.23-2.92 2.08-2.92 2.08-6.53V82q0-3.48-2.08-6.46-2.09-2.99-7.23-2.99h-26.83q-7.22 0-14.87-5.28-7.5-5.84-7.5-16.82V33.91q0-5.56 1.94-9.8 1.95-4.24 5.56-6.88h-.14q3.62-2.37 7.51-3.9t7.5-1.53h30.31q3.61 0 7.5 1.53t7.51 3.9h-.14q3.61 2.64 5.56 6.88t1.95 9.8v8.2q0 6.53-8.34 6.53-8.21 0-8.21-6.53v-6.95q0-3.48-2.08-6.4-2.09-2.92-7.23-2.92h-23.35q-5.14 0-7.23 2.92-2.08 2.92-2.08 6.4v14.17q0 3.62 2.08 6.47 2.09 2.85 7.23 2.85"/></g><path fill="transparent" stroke="transparent" d="M470 0h560v157H470z"/></g></svg>